<svg width="16" height="16" viewBox="0 0 16 16" fill="none" xmlns="http://www.w3.org/2000/svg">
<path d="M3.52051 6.23171C3.54131 2.76954 6.3508 -0.0207786 9.79705 0.000116593C13.2433 0.0210118 16.0208 2.84347 16 6.30565C15.9792 9.75336 13.1921 12.5372 9.76025 12.5372C6.306 12.5228 3.51571 9.70192 3.52051 6.23171ZM5.99081 6.23171C6.01001 8.32445 7.71554 10.0057 9.79865 9.98642C11.8818 9.96713 13.5553 8.25373 13.5361 6.16099C13.5169 4.08111 11.8322 2.40467 9.76025 2.40628C7.66754 2.41753 5.97801 4.12933 5.98601 6.23171H5.99081Z" fill="#1D1D1B"/>
<path d="M5.32608 8.9132L0 14.2415L1.7431 16L7.06918 10.6717L5.32608 8.9132Z" fill="#1D1D1B"/>
</svg>
